<?xml version="1.0" encoding="UTF-8"?><svg id="Layer_5" xmlns="http://www.w3.org/2000/svg" xmlns:xlink="http://www.w3.org/1999/xlink" viewBox="0 0 299.85 274.69"><defs><style>.cls-1{mask:url(#mask);}.cls-2{filter:url(#luminosity-noclip-2);}.cls-3{fill:#f7f7f9;}.cls-4{fill:#ee4623;}.cls-5{fill:#f0f0fc;}.cls-6{fill:#fff;}.cls-7{fill:#fe5800;}.cls-8{fill:#e5342d;}.cls-9,.cls-10{fill:#ff7300;}.cls-11{fill:#7c98b6;}.cls-12{fill:#9faffc;}.cls-13{fill:#c3c1c4;}.cls-14{fill:#11a2b2;}.cls-15{fill:#88d0d8;}.cls-16{fill:#282932;}.cls-17{fill:#262d4c;}.cls-18{fill:#516f90;}.cls-19{fill:#4db9c5;}.cls-20{fill:url(#_ÂÁ_Ï_ÌÌ_È_____ËÂÌÚ_29);mix-blend-mode:multiply;}.cls-10,.cls-21{opacity:.21;}.cls-22{opacity:.19;}.cls-23{fill:url(#_ÂÁ_Ï_ÌÌ_È_____ËÂÌÚ_4);}.cls-24{mask:url(#mask-1);}</style><linearGradient id="_ÂÁ_Ï_ÌÌ_È_____ËÂÌÚ_4" x1="275.33" y1="176.87" x2="302.81" y2="121.91" gradientTransform="matrix(1, 0, 0, 1, 0, 0)" gradientUnits="userSpaceOnUse"><stop offset=".29" stop-color="#eaeaf9"/><stop offset=".39" stop-color="#e3e3f7"/><stop offset=".53" stop-color="#d0d0f2"/><stop offset=".63" stop-color="#bebeed"/></linearGradient><filter id="luminosity-noclip-2" x="146.78" y="83.98" width="103.8" height="51.61" color-interpolation-filters="sRGB" filterUnits="userSpaceOnUse"><feFlood flood-color="#fff" result="bg"/><feBlend in="SourceGraphic" in2="bg"/></filter><filter id="luminosity-noclip-3" x="146.78" y="-7948.13" width="103.8" height="32766" color-interpolation-filters="sRGB" filterUnits="userSpaceOnUse"><feFlood flood-color="#fff" result="bg"/><feBlend in="SourceGraphic" in2="bg"/></filter><mask id="mask-1" x="146.78" y="-7948.13" width="103.8" height="32766" maskUnits="userSpaceOnUse"/><linearGradient id="_ÂÁ_Ï_ÌÌ_È_____ËÂÌÚ_29" x1="114.09" y1="-376.75" x2="246.06" y2="-376.75" gradientTransform="translate(-38.5 482.51) rotate(28.33) scale(.85 1.18) skewX(20.98)" gradientUnits="userSpaceOnUse"><stop offset="0" stop-color="gray"/><stop offset="1" stop-color="#fff"/></linearGradient><mask id="mask" x="146.78" y="83.98" width="103.8" height="51.61" maskUnits="userSpaceOnUse"><g class="cls-2"><g class="cls-24"><path class="cls-20" d="M250.11,123.06l-15.11,11.14,.17-.17c-1.03,1.38-2.62,1.91-4.04,1.34-1.43-.51-2.71-2.11-3.23-4.06-.81-3.37-1.51-6.53-2.27-9.8l-2.24-9.74c-.2-.81-.36-1.66-.57-2.28-.23-.66-.54-1.27-.93-1.78-.77-1.02-1.8-1.64-2.84-1.66l-7.09,.32c-1.19,.11-2.57-.08-3.77-.76-1.22-.67-2.35-1.72-3.24-3.09-.45-.68-.84-1.44-1.17-2.22l-.94-2.23-1.87-4.45-1.87-4.45-.93-2.2c-.28-.63-.69-1.13-1.17-1.45-.48-.31-1.01-.44-1.51-.34-.53,.11-.91,.41-1.41,.92l-2.87,2.73-5.74,5.47-5.74,5.47c-.91,1.02-2.18,1.66-3.44,1.45-.63-.08-1.25-.36-1.82-.77-.58-.44-1.05-1-1.55-1.5l-5.94-6.14c-1.99-1.92-4.57-2.49-6.77-1.5l-13.42,5.76,13.34-6.05c2.24-1.07,4.91-.54,7.01,1.42l6.01,6.03c.51,.49,.99,1.05,1.5,1.42,.52,.36,1.08,.6,1.65,.66,1.15,.15,2.21-.39,3.1-1.41l5.68-5.59,5.68-5.59,2.84-2.8c.42-.46,1.06-1.01,1.72-1.12,.66-.14,1.37,0,2,.4,.63,.41,1.19,1.08,1.58,1.91l.97,2.23,1.92,4.42,1.92,4.42,.96,2.21c.31,.7,.65,1.33,1.04,1.92,.79,1.17,1.77,2.06,2.83,2.61,1.08,.56,2.14,.71,3.31,.58l7.15-.47c1.36,0,2.74,.78,3.77,2.12,.52,.66,.95,1.47,1.27,2.35,.33,.93,.47,1.74,.68,2.54l2.34,9.7,2.34,9.63c.35,1.25,1.15,2.22,2.07,2.54,.92,.33,1.88-.01,2.52-.89l.07-.1,.1-.08,15-11.41c.45-.34,1.04-.09,1.32,.57,.27,.66,.13,1.47-.32,1.82h-.01Z"/></g></g></mask></defs><polygon class="cls-7" points="5.42 130.25 10.5 133.33 10.5 165.7 5.42 162.62 5.42 130.25"/><g><path class="cls-4" d="M137.7,127.09c-13.92,.35-25.52-10.69-25.87-24.61-.35-13.92,10.69-25.53,24.61-25.88,13.92-.35,25.53,10.69,25.88,24.61,.35,13.92-10.69,25.52-24.61,25.87M57.88,28.28c-.2-7.85,6.02-14.39,13.87-14.59,7.84-.2,14.39,6.03,14.58,13.87,.2,7.84-6.03,14.39-13.87,14.58s-14.39-6.02-14.58-13.87m78.25,35.98c-6.94,.17-13.38,2.26-18.88,5.7l-23.49-26.68c3.22-4.52,5.07-10.06,4.92-16.02-.37-14.65-12.59-26.28-27.24-25.91-14.65,.37-26.27,12.59-25.91,27.24,.37,14.65,12.59,26.27,27.24,25.91,4.23-.11,8.19-1.22,11.7-3.08l23.5,26.69c-5.49,6.72-8.72,15.34-8.49,24.68,.52,20.72,17.8,37.16,38.53,36.64,20.73-.52,37.17-17.8,36.65-38.53-.52-20.73-17.81-37.17-38.53-36.65"/><g><g><g><path class="cls-13" d="M185.14,262.06c-3.98,2.27-8.87,2.24-12.83-.07L40.98,185.26l-.04,.13v7.07c0,1.78,.96,3.43,2.51,4.31l126.89,72.35c5.18,2.95,11.54,2.95,16.72,0l76.35-43.49,.11-9.8-78.4,46.22Z"/><path class="cls-3" d="M184.9,262.2l77.39-44.13c1.61-.92,1.61-3.23,0-4.14l-133.69-76.23c-1.77-1.01-3.94-1.01-5.71,0l-80.72,46.03c-1.61,.92-1.61,3.23,0,4.14l130.36,74.33c3.83,2.19,8.54,2.19,12.38,0Z"/></g><g><path class="cls-13" d="M230.16,206.5c1.19,.68,3.12,.68,4.31,0,1.2-.69,1.2-1.79,.01-2.47-1.19-.68-3.12-.68-4.31,0-1.2,.69-1.2,1.79-.01,2.47Z"/><path class="cls-13" d="M236.17,209.95c1.19,.68,3.12,.68,4.31,0,1.2-.69,1.2-1.79,.01-2.48-1.19-.68-3.12-.68-4.31,0-1.2,.69-1.2,1.79-.01,2.47Z"/><path class="cls-13" d="M242.19,213.4c1.19,.68,3.12,.68,4.31,0,1.2-.69,1.2-1.79,.01-2.47-1.19-.68-3.12-.68-4.31,0-1.2,.69-1.2,1.79-.01,2.48Z"/></g><path class="cls-13" d="M100.23,212.26l25.18,14.44c2.82,1.62,7.74,1.41,11-.45l9.23-5.29c3.25-1.87,3.61-4.69,.79-6.31l-25.18-14.44c-2.82-1.62-7.74-1.41-11,.45l-9.23,5.29c-3.25,1.87-3.61,4.69-.79,6.31Z"/><path class="cls-23" d="M297.23,118.15l-24.79,90.38c-.93,3.38-3.31,6.17-6.52,7.63l26.22-95.31c.39-1.42,.41-2.87,.14-4.25l4.89-3.09c.42,1.5,.49,3.07,.07,4.64Z"/><path class="cls-5" d="M154.5,41.27l5.19-1.74c2.28-.77,4.78-.56,6.92,.56l123.24,64.95c3.36,1.82,6.33,4.96,7.33,8.48l-4.89,3.09c-.52-2.68-2.19-5.09-4.73-6.46l-90.12-48.75v.16l-42.93-20.28Z"/><g><g><polygon class="cls-13" points="121.76 157.25 113.09 152.27 121.72 147.33 130.39 152.31 121.76 157.25"/><polygon class="cls-13" points="132.09 163.16 123.41 158.19 132.03 153.25 140.72 158.23 132.09 163.16"/><polygon class="cls-13" points="142.41 169.09 133.73 164.1 142.36 159.17 151.04 164.16 142.41 169.09"/><polygon class="cls-13" points="152.74 175.02 144.06 170.05 152.68 165.08 161.37 170.07 152.74 175.02"/><polygon class="cls-13" points="163.06 180.94 154.38 175.96 163 171.01 171.69 175.97 163.06 180.94"/><polygon class="cls-13" points="173.38 186.86 164.7 181.87 173.32 176.93 182.01 181.91 173.38 186.86"/><polygon class="cls-13" points="183.7 192.77 175.02 187.8 183.65 182.84 192.32 187.83 183.7 192.77"/><polygon class="cls-13" points="194.02 198.69 185.35 193.72 193.97 188.78 202.66 193.76 194.02 198.69"/><polygon class="cls-13" points="204.35 204.62 195.67 199.63 204.29 194.69 212.98 199.68 204.35 204.62"/><polygon class="cls-13" points="214.67 210.54 205.99 205.57 214.61 200.61 223.29 205.6 214.67 210.54"/><polygon class="cls-13" points="224.99 216.47 216.31 211.49 224.94 206.52 233.62 211.51 224.99 216.47"/><polygon class="cls-13" points="235.32 222.38 226.63 217.4 235.25 212.45 243.94 217.42 235.32 222.38"/></g><g><polygon class="cls-13" points="110.78 163.56 102.09 158.57 110.72 153.64 119.41 158.6 110.78 163.56"/><polygon class="cls-13" points="121.1 169.48 112.41 164.51 121.04 159.55 129.72 164.54 121.1 169.48"/><polygon class="cls-13" points="131.42 175.4 122.74 170.43 131.36 165.48 140.04 170.45 131.42 175.4"/><polygon class="cls-13" points="141.75 181.32 133.06 176.34 141.68 171.39 150.37 176.37 141.75 181.32"/><polygon class="cls-13" points="152.06 187.24 143.38 182.25 152.01 177.31 160.69 182.3 152.06 187.24"/><polygon class="cls-13" points="162.38 193.16 153.71 188.19 162.33 183.24 171.01 188.22 162.38 193.16"/><polygon class="cls-13" points="172.71 199.09 164.03 194.11 172.65 189.16 181.33 194.13 172.71 199.09"/><polygon class="cls-13" points="183.02 205 174.34 200.03 182.98 195.07 191.64 200.06 183.02 205"/><polygon class="cls-13" points="193.35 210.92 184.67 205.95 193.3 201 201.98 205.98 193.35 210.92"/><polygon class="cls-13" points="203.68 216.85 194.99 211.86 203.62 206.92 212.29 211.9 203.68 216.85"/><polygon class="cls-13" points="214 222.77 205.31 217.78 213.94 212.83 222.62 217.82 214 222.77"/><polygon class="cls-13" points="224.31 228.69 215.63 223.71 224.26 218.76 232.95 223.74 224.31 228.69"/></g><g><polygon class="cls-13" points="99.38 170.09 90.71 165.12 99.33 160.17 108.01 165.14 99.38 170.09"/><polygon class="cls-13" points="109.7 176.02 101.03 171.03 109.65 166.08 118.33 171.07 109.7 176.02"/><polygon class="cls-13" points="120.03 181.94 111.34 176.96 119.98 172.01 128.65 177 120.03 181.94"/><polygon class="cls-13" points="130.35 187.86 121.67 182.88 130.3 177.93 138.98 182.9 130.35 187.86"/><polygon class="cls-13" points="140.67 193.77 132 188.8 140.61 183.86 149.3 188.82 140.67 193.77"/><polygon class="cls-13" points="150.99 199.7 142.31 194.73 150.94 189.77 159.63 194.75 150.99 199.7"/><polygon class="cls-13" points="161.32 205.62 152.65 200.64 161.27 195.69 169.95 200.68 161.32 205.62"/><polygon class="cls-13" points="171.64 211.54 162.96 206.57 171.58 201.61 180.27 206.6 171.64 211.54"/><polygon class="cls-13" points="181.96 217.46 173.29 212.48 181.92 207.52 190.59 212.51 181.96 217.46"/><polygon class="cls-13" points="192.28 223.38 183.61 218.4 192.23 213.45 200.92 218.42 192.28 223.38"/><polygon class="cls-13" points="202.61 229.3 193.92 224.32 202.55 219.38 211.23 224.35 202.61 229.3"/><polygon class="cls-13" points="212.93 235.22 204.25 230.25 212.88 225.3 221.55 230.27 212.93 235.22"/></g></g><path class="cls-17" d="M149.03,46.98l-21.68,90.03,138.58,79.15,26.29-95.58c1.11-4.04-.72-8.3-4.42-10.3L160.87,41.87c-4.68-2.52-10.51,0-11.84,5.11Z"/><path class="cls-6" d="M105.37,230l-4.47-2.57c-.63-.36-1.14-1.33-1.14-2.16s.51-1.22,1.14-.86l4.47,2.57c.63,.36,1.14,1.33,1.14,2.16s-.51,1.22-1.14,.86Z"/></g><g><g class="cls-21"><path class="cls-14" d="M156.27,55.05s-.92,3.96-.92,3.96c0,0-.92,3.96-.92,3.96,0,0-.92,3.96-.92,3.96,0,0-.92,3.96-.92,3.96,0,0-.92,3.96-.92,3.96,0,0-.92,3.96-.92,3.96,0,0-.92,3.96-.92,3.96,0,0-3.47,15-3.47,15,.05,.03,.67,.36,.67,.36l10.78-46.74-.62-.33-.92,3.97Z"/><polygon class="cls-14" points="160.19 105.23 160.81 105.56 162.16 99.72 171.6 58.83 170.97 58.49 160.19 105.23"/><polygon class="cls-14" points="173.97 112.63 174.6 112.97 177.29 101.28 185.38 66.23 184.76 65.9 173.97 112.63"/><polygon class="cls-14" points="187.76 120.04 188.38 120.37 192.43 102.85 199.17 73.64 198.54 73.3 187.76 120.04"/><polygon class="cls-14" points="201.55 127.44 202.17 127.78 207.56 104.41 212.95 81.04 212.33 80.71 201.55 127.44"/><polygon class="cls-14" points="215.33 134.85 215.95 135.18 222.69 105.97 226.74 88.45 226.12 88.11 215.33 134.85"/><polygon class="cls-14" points="229.12 142.26 229.74 142.59 237.83 107.54 240.52 95.85 239.9 95.52 229.12 142.26"/><polygon class="cls-14" points="253.69 102.93 242.9 149.66 243.52 150 252.96 109.1 254.31 103.26 253.69 102.93"/></g><g class="cls-1"><path class="cls-14" d="M250.11,123.06l-15.11,11.14,.17-.17c-1.03,1.38-2.62,1.91-4.04,1.34-1.43-.51-2.71-2.11-3.23-4.06-.81-3.37-1.51-6.53-2.27-9.8l-2.24-9.74c-.2-.81-.36-1.66-.57-2.28-.23-.66-.54-1.27-.93-1.78-.77-1.02-1.8-1.64-2.84-1.66l-7.09,.32c-1.19,.11-2.57-.08-3.77-.76-1.22-.67-2.35-1.72-3.24-3.09-.45-.68-.84-1.44-1.17-2.22l-.94-2.23-1.87-4.45-1.87-4.45-.93-2.2c-.28-.63-.69-1.13-1.17-1.45-.48-.31-1.01-.44-1.51-.34-.53,.11-.91,.41-1.41,.92l-2.87,2.73-5.74,5.47-5.74,5.47c-.91,1.02-2.18,1.66-3.44,1.45-.63-.08-1.25-.36-1.82-.77-.58-.44-1.05-1-1.55-1.5l-5.94-6.14c-1.99-1.92-4.57-2.49-6.77-1.5l-13.42,5.76,13.34-6.05c2.24-1.07,4.91-.54,7.01,1.42l6.01,6.03c.51,.49,.99,1.05,1.5,1.42,.52,.36,1.08,.6,1.65,.66,1.15,.15,2.21-.39,3.1-1.41l5.68-5.59,5.68-5.59,2.84-2.8c.42-.46,1.06-1.01,1.72-1.12,.66-.14,1.37,0,2,.4,.63,.41,1.19,1.08,1.58,1.91l.97,2.23,1.92,4.42,1.92,4.42,.96,2.21c.31,.7,.65,1.33,1.04,1.92,.79,1.17,1.77,2.06,2.83,2.61,1.08,.56,2.14,.71,3.31,.58l7.15-.47c1.36,0,2.74,.78,3.77,2.12,.52,.66,.95,1.47,1.27,2.35,.33,.93,.47,1.74,.68,2.54l2.34,9.7,2.34,9.63c.35,1.25,1.15,2.22,2.07,2.54,.92,.33,1.88-.01,2.52-.89l.07-.1,.1-.08,15-11.41c.45-.34,1.04-.09,1.32,.57,.27,.66,.13,1.47-.32,1.82h-.01Z"/></g></g><path class="cls-15" d="M196.05,167.83l9.63-14.21c1.2-1.78,3.93-1.41,4.61,.63l2.18,6.52c.5,1.48,2.4,1.91,3.48,.78l10.34-10.7c1.75-1.81,4.81-1.14,5.63,1.24l7.52,21.69c1.36,3.92,6.2,5.34,9.47,2.77l1.15-.9c1.26-.99,3.12-.36,3.53,1.18l7.11,27.19-64.65-36.18Z"/><g class="cls-22"><polygon class="cls-12" points="277.71 125.02 266.94 118.58 266.64 119.89 277.41 126.33 277.71 125.02"/><polygon class="cls-12" points="276.64 129.72 265.87 123.28 265.58 124.59 276.34 131.03 276.64 129.72"/><polygon class="cls-12" points="268.68 110.91 268.38 112.22 272.15 114.47 272.44 113.16 268.68 110.91"/><polygon class="cls-12" points="268.1 113.47 267.8 114.78 271.57 117.03 271.86 115.72 268.1 113.47"/><polygon class="cls-12" points="264.01 131.49 263.72 132.8 266.88 134.69 267.17 133.38 264.01 131.49"/><polygon class="cls-12" points="263.43 134.05 263.14 135.35 266.3 137.24 266.59 135.94 263.43 134.05"/><polygon class="cls-12" points="261.7 141.71 261.4 143.02 268.7 147.38 268.99 146.08 261.7 141.71"/><polygon class="cls-12" points="260.54 146.82 260.24 148.13 267.54 152.5 267.83 151.19 260.54 146.82"/><polygon class="cls-12" points="259.92 149.55 259.62 150.85 262.37 152.5 262.66 151.19 259.92 149.55"/><polygon class="cls-12" points="258.18 157.21 257.89 158.52 260.63 160.16 260.92 158.85 258.18 157.21"/><polygon class="cls-12" points="257.02 162.32 256.73 163.63 259.47 165.27 259.77 163.96 257.02 162.32"/></g><g><polygon class="cls-10" points="159.13 144.66 158.87 144.49 161.4 133.85 161.66 134.02 159.13 144.66"/><polygon class="cls-10" points="165.15 148.67 164.89 148.5 172.76 115.36 173.02 115.53 165.15 148.67"/><polygon class="cls-10" points="176.23 131.36 171.17 152.68 171.43 152.85 176.49 131.53 176.23 131.36"/><polygon class="cls-10" points="177.49 156.89 177.23 156.72 185.1 123.58 185.36 123.75 177.49 156.89"/><polygon class="cls-10" points="182.63 160.32 182.37 160.14 183.85 153.91 184.11 154.09 182.63 160.32"/><polygon class="cls-10" points="187.83 163.78 187.57 163.61 195.44 130.47 195.7 130.64 187.83 163.78"/><path class="cls-9" d="M165.84,146.12l-.27-.18c-.44-.29-.66-1.08-.5-1.75l5.63-23.71c.16-.67,.65-.99,1.09-.69l.27,.18c.44,.29,.66,1.08,.5,1.75l-5.63,23.71c-.16,.67-.65,.99-1.09,.69Z"/><path class="cls-9" d="M188.45,161.38l-.27-.18c-.44-.29-.66-1.08-.5-1.75l4.63-19.48c.16-.67,.65-.99,1.09-.69l.27,.18c.44,.29,.66,1.08,.5,1.75l-4.63,19.48c-.16,.67-.65,.99-1.09,.69Z"/><path class="cls-9" d="M178.07,154.26l-.27-.18c-.44-.29-.66-1.08-.5-1.75l3.42-14.39c.16-.67,.65-.99,1.09-.69l.27,.18c.44,.29,.66,1.08,.5,1.75l-3.42,14.39c-.16,.67-.65,.99-1.09,.69Z"/><path class="cls-9" d="M160.33,140.15l-.27-.18c-.44-.29-.66-1.08-.5-1.75l.26-1.11c.16-.67,.65-.99,1.09-.69l.27,.18c.44,.29,.66,1.08,.5,1.75l-.26,1.11c-.16,.67-.65,.99-1.09,.69Z"/><path class="cls-9" d="M172.89,147.05l-.27-.18c-.44-.29-.66-1.08-.5-1.75l1.88-7.92c.16-.67,.65-.99,1.09-.69l.27,.18c.44,.29,.66,1.08,.5,1.75l-1.88,7.92c-.16,.67-.65,.99-1.09,.69Z"/></g></g><path class="cls-19" d="M70.77,68.83c7.2,6.4,12.29,16.59,18.28,13.13v32.37l-18.28,10.56v-56.05Z"/><polygon class="cls-19" points="89.05 81.96 94.13 85.04 88.73 91.76 82.5 83.87 87.88 83.65 89.05 81.96"/><path class="cls-15" d="M75.85,71.91c7.2,6.4,12.29,16.59,18.28,13.13v32.37l-18.28,10.56v-56.05Z"/><polygon class="cls-14" points="75.85 127.96 70.77 124.89 70.77 68.83 75.85 71.91 75.85 127.96"/><path class="cls-18" d="M67.27,70.86v56.05l-18.28,10.56V68.37c7.65-4.42,13.44-1.82,18.28,2.49Z"/><polygon class="cls-18" points="48.99 68.37 54.07 71.44 54.07 140.54 48.99 137.47 48.99 68.37"/><polygon class="cls-18" points="68.26 70.96 62.59 67.57 48.99 68.37 54.07 71.44 68.26 70.96"/><path class="cls-11" d="M72.35,73.93v56.05l-18.28,10.56V71.44c7.65-4.42,13.44-1.82,18.28,2.49Z"/><path d="M45.48,70.39l5.08,3.08-5.08,66.02-18.28,10.56v-56.26c4.71-9.73,10.43-18.86,18.28-23.39Z"/><path class="cls-17" d="M50.56,73.47v69.1l-18.28,10.56v-56.26c4.71-9.73,10.43-18.86,18.28-23.39Z"/><polygon points="27.2 93.78 32.28 96.86 32.28 153.12 27.2 150.04 27.2 93.78"/><path class="cls-7" d="M23.7,95.8l5.08,3.08-5.08,53.19-18.28,10.56v-32.37c6.35-3.67,11.16-19.75,18.28-34.45Z"/><path class="cls-9" d="M28.78,98.88v56.26l-18.28,10.56v-32.37c6.35-3.67,11.16-19.75,18.28-34.45Z"/><polygon class="cls-11" points="77.93 153.54 95.74 143.26 77.85 132.85 60.04 143.12 77.93 153.54"/><polygon class="cls-11" points="95.74 143.26 95.74 147.83 77.93 158.11 77.93 153.54 95.74 143.26"/><polygon class="cls-18" points="60.04 147.7 60.04 143.12 77.93 153.54 77.93 158.11 60.04 147.7"/><polygon class="cls-15" points="99.72 140.91 117.52 130.63 99.63 120.21 81.83 130.49 99.72 140.91"/><polygon class="cls-19" points="117.52 130.63 117.52 135.2 99.72 145.48 99.72 140.91 117.52 130.63"/><polygon class="cls-19" points="81.83 135.06 81.83 130.49 99.72 140.91 99.72 145.48 81.83 135.06"/><polygon class="cls-9" points="34.91 178.62 52.71 168.34 34.82 157.92 17.02 168.2 34.91 178.62"/><polygon class="cls-8" points="52.71 168.34 52.71 172.91 34.91 183.19 34.91 178.62 52.71 168.34"/><polygon class="cls-7" points="17.02 172.77 17.02 168.2 34.91 178.62 34.91 183.19 17.02 172.77"/><polygon class="cls-17" points="56.69 165.98 74.5 155.7 56.6 145.29 38.8 155.57 56.69 165.98"/><polygon points="74.5 155.7 74.5 160.27 56.69 170.55 56.69 165.98 74.5 155.7"/><polygon points="38.8 160.14 38.8 155.57 56.69 165.98 56.69 170.55 38.8 160.14"/><g><path class="cls-9" d="M135.22,188.7c-7.6-3.5-17.5-5.62-28.34-5.62s-20.74,2.12-28.34,5.62l28.34,16.36,28.34-16.36Z"/><polygon class="cls-7" points="78.53 188.69 78.53 203.3 106.88 219.67 106.88 205.06 78.53 188.69"/><polygon class="cls-8" points="135.22 188.7 135.22 225.74 106.88 242.1 106.88 205.06 135.22 188.7"/></g><path class="cls-17" d="M63.52,220.74v22.46c0,6.44,4.98,12.27,12.99,16.45v-28.23l-12.99-10.68Z"/><path class="cls-19" d="M159.76,242.34v-22.46l-12.99,9.43v29.48c8.01-4.18,12.99-10.01,12.99-16.45Z"/><path class="cls-15" d="M146.77,236.34c8.01-4.18,12.99-10.01,12.99-16.45,0-6.97-5.82-13.21-15.01-17.44l-28.34,16.36,30.36,17.53Z"/><polygon class="cls-14" points="116.41 218.81 116.41 241.26 146.77 258.79 146.77 236.34 116.41 218.81"/><path class="cls-16" d="M76.51,248.15v11.5c7.82,4.08,18.53,6.61,30.36,6.61s22.54-2.52,30.37-6.61v-11.5h-60.73Z"/><path class="cls-18" d="M63.52,220.74c0,6.45,4.98,12.27,12.99,16.45l30.36-17.53-28.34-16.36c-9.19,4.23-15.01,10.47-15.01,17.44Z"/><path class="cls-13" d="M76.51,248.15c7.82,4.08,18.54,6.61,30.36,6.61s22.54-2.52,30.37-6.61l-30.36-17.53-30.36,17.53Z"/><polygon class="cls-11" points="106.88 219.67 106.88 230.62 76.51 248.15 76.51 237.2 106.88 219.67"/></g></svg>